<svg xmlns="http://www.w3.org/2000/svg" viewBox="0 0 800 520" role="img" aria-labelledby="title desc">
  <title id="title">2021年6月 前厅落地窗</title>
  <desc id="desc">柔和蓝绿色调的插画，描绘阳光洒入的前厅与圆桌。</desc>
  <defs>
    <linearGradient id="sky" x1="0" y1="0" x2="1" y2="1">
      <stop offset="0%" stop-color="#9fd2ff" />
      <stop offset="100%" stop-color="#d9f1ff" />
    </linearGradient>
    <linearGradient id="floor" x1="0" y1="0" x2="0" y2="1">
      <stop offset="0%" stop-color="#f3f9ff" />
      <stop offset="100%" stop-color="#d7e5f4" />
    </linearGradient>
  </defs>
  <rect width="800" height="520" fill="url(#sky)" rx="32" />
  <rect x="50" y="260" width="700" height="200" fill="url(#floor)" opacity="0.85" />
  <g opacity="0.8">
    <rect x="120" y="90" width="140" height="260" fill="rgba(255,255,255,0.8)" />
    <rect x="280" y="90" width="140" height="260" fill="rgba(255,255,255,0.9)" />
    <rect x="440" y="90" width="140" height="260" fill="rgba(255,255,255,0.8)" />
    <rect x="600" y="90" width="80" height="260" fill="rgba(255,255,255,0.7)" />
  </g>
  <g opacity="0.3" fill="#3a7bd5">
    <rect x="130" y="110" width="120" height="220" />
    <rect x="290" y="110" width="120" height="220" />
    <rect x="450" y="110" width="120" height="220" />
  </g>
  <g>
    <ellipse cx="320" cy="320" rx="120" ry="42" fill="rgba(74, 119, 181, 0.2)" />
    <ellipse cx="320" cy="310" rx="110" ry="26" fill="#ffffff" />
    <rect x="290" y="244" width="60" height="72" fill="#4f7db6" rx="16" />
    <rect x="360" y="244" width="60" height="72" fill="#6991c8" rx="16" />
    <rect x="300" y="262" width="40" height="46" fill="#ffffff" opacity="0.8" rx="10" />
  </g>
  <g transform="translate(520 280)">
    <ellipse cx="0" cy="80" rx="90" ry="36" fill="rgba(74, 119, 181, 0.2)" />
    <rect x="-36" y="0" width="72" height="88" rx="22" fill="#5fa6a6" />
    <rect x="-26" y="18" width="52" height="48" rx="16" fill="#ffffff" opacity="0.85" />
    <rect x="70" y="-50" width="22" height="180" rx="10" fill="#7dc47d" />
    <circle cx="81" cy="-68" r="44" fill="#9be19b" />
  </g>
  <text x="400" y="470" font-size="30" text-anchor="middle" fill="rgba(24,58,92,0.65)" font-family="'Noto Sans SC','PingFang SC',sans-serif">午后的阳光与圆桌陪你讨论每一个小细节</text>
</svg>
