<svg xmlns="http://www.w3.org/2000/svg" viewBox="0 0 800 520" role="img" aria-labelledby="title desc">
  <title id="title">2021年6月 玻璃隔断的工位</title>
  <desc id="desc">描绘办公室玻璃隔断、绿植与干净地面的插画。</desc>
  <defs>
    <linearGradient id="bg2" x1="0" y1="0" x2="1" y2="1">
      <stop offset="0%" stop-color="#b6e1ff" />
      <stop offset="100%" stop-color="#f0f8ff" />
    </linearGradient>
  </defs>
  <rect width="800" height="520" fill="url(#bg2)" rx="32" />
  <g opacity="0.85">
    <rect x="90" y="70" width="620" height="320" fill="rgba(255,255,255,0.9)" rx="26" />
    <rect x="140" y="120" width="520" height="240" fill="rgba(227,240,255,0.75)" rx="22" />
  </g>
  <g fill="#3a7bd5" opacity="0.35">
    <rect x="170" y="130" width="12" height="220" />
    <rect x="340" y="130" width="12" height="220" />
    <rect x="510" y="130" width="12" height="220" />
  </g>
  <g>
    <rect x="200" y="190" width="90" height="110" fill="#ffffff" rx="18" />
    <rect x="210" y="200" width="70" height="60" fill="#ffbf80" rx="14" />
    <rect x="380" y="190" width="110" height="110" fill="#ffffff" rx="18" />
    <rect x="395" y="200" width="82" height="60" fill="#8ad1ff" rx="14" />
    <rect x="560" y="190" width="90" height="110" fill="#ffffff" rx="18" />
    <rect x="572" y="200" width="66" height="60" fill="#a9e6c8" rx="14" />
  </g>
  <g>
    <rect x="210" y="310" width="60" height="10" fill="#c1d7f1" />
    <rect x="390" y="310" width="60" height="10" fill="#c1d7f1" />
    <rect x="570" y="310" width="60" height="10" fill="#c1d7f1" />
  </g>
  <g>
    <ellipse cx="140" cy="360" rx="48" ry="20" fill="rgba(90, 173, 133, 0.2)" />
    <rect x="124" y="290" width="28" height="78" rx="12" fill="#6fb68f" />
    <circle cx="138" cy="280" r="44" fill="#8fd8ac" />
  </g>
  <g>
    <ellipse cx="660" cy="360" rx="44" ry="18" fill="rgba(90, 173, 133, 0.2)" />
    <rect x="644" y="300" width="28" height="70" rx="12" fill="#6fb68f" />
    <circle cx="658" cy="290" r="36" fill="#8fd8ac" />
  </g>
  <text x="400" y="470" font-size="30" text-anchor="middle" fill="rgba(31,61,90,0.65)" font-family="'Noto Sans SC','PingFang SC',sans-serif">玻璃折射出六月的光，也装进了满满的期待</text>
</svg>
