<svg xmlns="http://www.w3.org/2000/svg" viewBox="0 0 960 640">
  <defs>
    <linearGradient id="bg" x1="0%" y1="0%" x2="100%" y2="100%">
      <stop offset="0%" stop-color="#cde7ff" />
      <stop offset="100%" stop-color="#f5fbff" />
    </linearGradient>
    <radialGradient id="steam" cx="50%" cy="0%" r="70%">
      <stop offset="0%" stop-color="#ffffff" stop-opacity="0.75" />
      <stop offset="100%" stop-color="#ffffff" stop-opacity="0" />
    </radialGradient>
  </defs>
  <rect width="960" height="640" rx="48" fill="url(#bg)" />
  <g transform="translate(120 120)">
    <rect width="720" height="400" rx="36" fill="#ffffff" opacity="0.85" />
    <text x="60" y="90" font-family="'Noto Sans SC', 'PingFang SC', sans-serif" font-size="52" font-weight="700" fill="#2a6bb6">
      2022年3月 · 温茶一盏
    </text>
    <text x="60" y="140" font-family="'Noto Sans SC', 'PingFang SC', sans-serif" font-size="26" fill="#407bd4">
      我们在案前歇脚，未来也在这一杯回甘里慢慢沉淀。
    </text>
    <g transform="translate(180 160)">
      <ellipse cx="220" cy="220" rx="220" ry="70" fill="#b7d7ff" opacity="0.55" />
      <ellipse cx="220" cy="220" rx="170" ry="55" fill="#e0ecff" />
      <path d="M120 160c0-60 200-60 200 0v90H120z" fill="#ffffff" stroke="#9ec7ff" stroke-width="4" />
      <path d="M320 170c35 0 60 25 60 60s-25 60-60 60" fill="none" stroke="#5e9ff5" stroke-width="16" stroke-linecap="round" />
      <circle cx="320" cy="208" r="16" fill="#ffffff" stroke="#5e9ff5" stroke-width="6" />
      <ellipse cx="220" cy="200" rx="120" ry="26" fill="#e6f1ff" />
      <ellipse cx="160" cy="90" rx="32" ry="80" fill="url(#steam)" />
      <ellipse cx="220" cy="60" rx="28" ry="100" fill="url(#steam)" opacity="0.8" />
      <ellipse cx="280" cy="100" rx="24" ry="70" fill="url(#steam)" opacity="0.75" />
    </g>
  </g>
</svg>
